<?xml version="1.0" encoding="UTF-8"?>
<svg version="1.1" xmlns="http://www.w3.org/2000/svg" width="48" height="48">
<path d="M0 0 C15.84 0 31.68 0 48 0 C48 15.84 48 31.68 48 48 C32.16 48 16.32 48 0 48 C0 32.16 0 16.32 0 0 Z " fill="#1F2747" transform="translate(0,0)"/>
<path d="M0 0 C0 0.66 0 1.32 0 2 C0.66 2 1.32 2 2 2 C2 2.66 2 3.32 2 4 C1.319375 3.835 0.63875 3.67 -0.0625 3.5 C-6.07204418 2.47709886 -9.91079133 2.51025691 -15 6 C-15.66 6 -16.32 6 -17 6 C-17.309375 6.78375 -17.61875 7.5675 -17.9375 8.375 C-19 11 -19 11 -20 13 C-20.46808922 19.34926996 -20.46808922 19.34926996 -18 25 C-17.01 25.66 -16.02 26.32 -15 27 C-15 27.66 -15 28.32 -15 29 C-9.72360014 30.75879995 -4.69995255 30.69257326 0.375 28.625 C3.03698031 27.11571258 3.03698031 27.11571258 5 25 C4.57855782 29.77634466 2.46436717 32.83876496 -1 36 C-6.25577647 39.9539985 -11.54783365 40.6739176 -18.02734375 40.4609375 C-22.70748111 39.73523946 -26.19058771 37.72649468 -30 35 C-30.71800781 34.49726562 -31.43601562 33.99453125 -32.17578125 33.4765625 C-35.97663897 30.40006525 -36.45443244 25.63732422 -37 21 C-37.6137285 13.63525803 -36.26317548 6.92550318 -31.421875 1.1015625 C-21.6274306 -7.94285688 -10.61144019 -6.20292955 0 0 Z " fill="#55443B" transform="translate(39,7)"/>
<path d="M0 0 C1.8871875 0.0309375 1.8871875 0.0309375 3.8125 0.0625 C2.26870382 1.09169745 0.7208859 2.11734092 -0.87109375 3.0703125 C-5.76744012 6.18914337 -8.44088787 9.49194415 -10.1875 15.0625 C-11.17788185 20.3207129 -10.10686854 24.59933373 -7.515625 29.234375 C-4.85680497 32.89416257 -1.58742304 35.43683913 2.8203125 36.5859375 C4.93113459 36.93088392 4.93113459 36.93088392 7.8125 37.0625 C4.00405883 39.60146078 2.3502371 39.50163585 -2.1875 39.0625 C-9.62064476 36.82237418 -13.60033406 33.49764162 -17.5 26.8125 C-18.87814504 21.29991982 -19.30124134 15.48120644 -16.625 10.3125 C-12.62038316 4.27697033 -7.42398019 -0.12170459 0 0 Z " fill="#DBC99A" transform="translate(23.1875,4.9375)"/>
<path d="M0 0 C0.99 0.33 1.98 0.66 3 1 C3.10957031 1.80824219 3.21914063 2.61648437 3.33203125 3.44921875 C3.49058594 4.51785156 3.64914063 5.58648437 3.8125 6.6875 C4.03873047 8.27111328 4.03873047 8.27111328 4.26953125 9.88671875 C5.02661621 13.11343914 6.26498325 15.20971279 8 18 C8 18.99 8 19.98 8 21 C11.3 21.99 14.6 22.98 18 24 C18 25.65 18 27.3 18 29 C11.26248948 27.6524979 5.85077589 24.85077589 1 20 C-1.96713037 14.75806968 -2.4728595 10.86345783 -2 5 C-1 2 -1 2 0 0 Z " fill="#564433" transform="translate(14,15)"/>
<path d="M0 0 C1 3 1 3 0.06640625 4.90234375 C-3.56959073 9.82274485 -6.94060566 13.44015591 -13 15 C-17.02625455 15.29677552 -20.9723373 15.24165976 -25 15 C-25 14.01 -25 13.02 -25 12 C-20.38 12 -15.76 12 -11 12 C-11 10.35 -11 8.7 -11 7 C-12.8871875 6.8453125 -12.8871875 6.8453125 -14.8125 6.6875 C-17.60499657 6.35141192 -18.74433121 6.19974124 -21 4.4375 C-21.495 3.7259375 -21.495 3.7259375 -22 3 C-21.34 2.34 -20.68 1.68 -20 1 C-19.67 1.99 -19.34 2.98 -19 4 C-15.33323896 5.61337486 -10.93120616 5.43763907 -7 5 C-2.67774504 3.43343215 -2.67774504 3.43343215 0 0 Z " fill="#4F403B" transform="translate(43,32)"/>
<path d="M0 0 C0.33 0.99 0.66 1.98 1 3 C-0.109375 5.04296875 -0.109375 5.04296875 -1.75 7.1875 C-2.28109375 7.90292969 -2.8121875 8.61835937 -3.359375 9.35546875 C-3.90078125 9.89816406 -4.4421875 10.44085938 -5 11 C-5.99 11 -6.98 11 -8 11 C-7.67 9.68 -7.34 8.36 -7 7 C-7.87011719 7.05220703 -7.87011719 7.05220703 -8.7578125 7.10546875 C-14.009134 7.28744524 -17.39511219 6.83377711 -22 4 C-21.34 3.01 -20.68 2.02 -20 1 C-19.67 1.99 -19.34 2.98 -19 4 C-15.33323896 5.61337486 -10.93120616 5.43763907 -7 5 C-2.67774504 3.43343215 -2.67774504 3.43343215 0 0 Z " fill="#493F43" transform="translate(43,32)"/>
<path d="M0 0 C0.556875 0.7425 1.11375 1.485 1.6875 2.25 C5.61777308 6.92383826 9.10009876 9.35351593 15 11 C14.01 11.33 13.02 11.66 12 12 C12 12.66 12 13.32 12 14 C8.12346885 12.85466125 4.93987644 11.83488085 2 9 C0.27407783 5.63445177 0 3.87180591 0 0 Z " fill="#5C4A40" transform="translate(6,32)"/>
<path d="M0 0 C2.86724686 0.57344937 3.8614515 0.8614515 6 3 C6.66 3.33 7.32 3.66 8 4 C8.33 3.34 8.66 2.68 9 2 C9.99 2.66 10.98 3.32 12 4 C14.32387947 4.39387788 16.65793749 4.73486085 19 5 C15.19155883 7.53896078 13.5377371 7.43913585 9 7 C5.89455009 5.86446188 2.94657592 4.49667348 0 3 C0 2.01 0 1.02 0 0 Z " fill="#D6C097" transform="translate(12,37)"/>
<path d="M0 0 C0.99 0.33 1.98 0.66 3 1 C3.05422947 2.4370809 3.09289723 3.87475462 3.125 5.3125 C3.14820313 6.11300781 3.17140625 6.91351563 3.1953125 7.73828125 C3 10 3 10 1 13 C0.67 12.34 0.34 11.68 0 11 C-0.66 11.66 -1.32 12.32 -2 13 C-2.16682272 8.07872966 -2.24828052 4.49656104 0 0 Z " fill="#654F37" transform="translate(14,15)"/>
<path d="M0 0 C1.16144531 0.00902344 2.32289062 0.01804688 3.51953125 0.02734375 C4.39996094 0.03894531 5.28039062 0.05054687 6.1875 0.0625 C6.5175 0.7225 6.8475 1.3825 7.1875 2.0625 C6.02734375 2.01029297 6.02734375 2.01029297 4.84375 1.95703125 C-3.60720003 1.73739022 -9.3485961 3.01955205 -16.8125 7.0625 C-16.8125 6.0725 -16.8125 5.0825 -16.8125 4.0625 C-11.50746216 0.12161474 -6.43646807 -0.06501483 0 0 Z " fill="#29283D" transform="translate(24.8125,0.9375)"/>
<path d="M0 0 C2.02125972 3.03188958 2.26674093 3.97943425 2.5 7.4375 C2.72805117 10.8069561 3.38948488 13.03490434 5 16 C5.36784131 17.3242287 5.71202981 18.65613912 6 20 C3 19 3 19 1.875 16.8125 C0.10932482 11.13711549 -0.10154576 5.8896538 0 0 Z " fill="#4A3F40" transform="translate(2,20)"/>
<path d="M0 0 C0.99 0.33 1.98 0.66 3 1 C3 1.66 3 2.32 3 3 C3.66 3 4.32 3 5 3 C5 3.66 5 4.32 5 5 C4.319375 4.835 3.63875 4.67 2.9375 4.5 C-2.5223821 3.57065837 -6.96533282 3.55894925 -12 6 C-12 5.01 -12 4.02 -12 3 C-9.47524538 1.73762269 -7.68799534 1.90143596 -4.875 1.9375 C-3.96492188 1.94652344 -3.05484375 1.95554687 -2.1171875 1.96484375 C-1.41851562 1.97644531 -0.71984375 1.98804688 0 2 C0 1.34 0 0.68 0 0 Z " fill="#494249" transform="translate(36,6)"/>
<path d="M0 0 C1.98 0.66 3.96 1.32 6 2 C6 2.99 6 3.98 6 5 C3.03 5 0.06 5 -3 5 C-2.505 4.360625 -2.01 3.72125 -1.5 3.0625 C0.09802862 1.29025661 0.09802862 1.29025661 0 0 Z " fill="#4E3D36" transform="translate(30,3)"/>
<path d="M0 0 C2.97 0.33 5.94 0.66 9 1 C9 2.65 9 4.3 9 6 C6.07120629 5.37240135 3.63904371 4.41377341 1 3 C1.66 2.67 2.32 2.34 3 2 C2.01 1.34 1.02 0.68 0 0 Z " fill="#644D43" transform="translate(23,38)"/>
<path d="M0 0 C1.06723961 3.46222615 1.10173486 6.64039266 1.0625 10.25 C1.05347656 11.32765625 1.04445312 12.4053125 1.03515625 13.515625 C1.02355469 14.33546875 1.01195312 15.1553125 1 16 C-1.18994248 12.71508627 -1.35277339 11.16904361 -1.625 7.3125 C-1.69976562 6.31863281 -1.77453125 5.32476562 -1.8515625 4.30078125 C-1.90054688 3.54152344 -1.94953125 2.78226563 -2 2 C-1.34 2 -0.68 2 0 2 C0 1.34 0 0.68 0 0 Z " fill="#2D2C41" transform="translate(2,16)"/>
<path d="M0 0 C1.8871875 0.061875 1.8871875 0.061875 3.8125 0.125 C-0.9875 3.325 -0.9875 3.325 -3.1875 4.125 C-5.4375 3.25 -5.4375 3.25 -7.1875 2.125 C-4.09861478 0.06574319 -3.47814073 -0.1140374 0 0 Z " fill="#CDBE99" transform="translate(23.1875,4.875)"/>
<path d="M0 0 C0.33 0.99 0.66 1.98 1 3 C-0.32 4.32 -1.64 5.64 -3 7 C-4.32 6.34 -5.64 5.68 -7 5 C-6.030625 4.54625 -5.06125 4.0925 -4.0625 3.625 C-0.92920418 2.34213779 -0.92920418 2.34213779 0 0 Z " fill="#414150" transform="translate(43,32)"/>
<path d="M0 0 C-1.25 1.5625 -1.25 1.5625 -3 3 C-5.97397616 2.72963853 -6.85446026 2.14553974 -9 0 C-5.62182575 -0.84454356 -3.32534757 -1.10844919 0 0 Z " fill="#685346" transform="translate(31,4)"/>
<path d="M0 0 C4.42857143 5.14285714 4.42857143 5.14285714 5 9 C2 8 2 8 0.8125 6.1875 C0 4 0 4 0 0 Z " fill="#5B4C32" transform="translate(6,32)"/>
<path d="M0 0 C-1.32 1.32 -2.64 2.64 -4 4 C-4.99 3.67 -5.98 3.34 -7 3 C-6.67 2.01 -6.34 1.02 -6 0 C-3 -1 -3 -1 0 0 Z " fill="#4D3F31" transform="translate(22,13)"/>
</svg>
